<?xml version="1.0" encoding="UTF-8"?>
<svg width="235px" height="114px" viewBox="0 0 235 114" version="1.1" xmlns="http://www.w3.org/2000/svg" xmlns:xlink="http://www.w3.org/1999/xlink">
    <!-- Generator: sketchtool 41 (35326) - http://www.bohemiancoding.com/sketch -->
    <title>6AC41FE1-3F6F-44F9-B303-6F09BA3AEA0E</title>
    <desc>Created with sketchtool.</desc>
    <defs></defs>
    <g id="web-extra" stroke="none" stroke-width="1" fill="none" fill-rule="evenodd">
        <g id="47-web" transform="translate(-523.000000, -196.000000)">
            <g id="success" transform="translate(528.000000, 196.000000)">
                <g id="credit-card-success" transform="translate(43.085106, 49.852665)" fill="#FFFFFF">
                    <rect id="Rectangle-5" x="0" y="0" width="69.8138298" height="5.93484102" rx="2.96742051"></rect>
                </g>
                <g id="credit-card">
                    <path d="M187.237762,88.9262801 C187.237762,88.9262801 229.079577,85.6491843 224.675175,40.8622073" id="Path-2" stroke="#BAE4A1" stroke-width="8.3999995" stroke-linecap="round" stroke-linejoin="round" transform="translate(206.118881, 64.894244) scale(1, -1) translate(-206.118881, -64.894244) "></path>
                    <path d="M-7.10542736e-15,88.9262801 C-7.10542736e-15,88.9262801 41.8418147,85.6491843 37.4374131,40.8622073" id="Path-2" stroke="#BAE4A1" stroke-width="8.3999995" stroke-linecap="round" stroke-linejoin="round" transform="translate(18.881119, 64.894244) scale(-1, -1) translate(-18.881119, -64.894244) "></path>
                    <g id="card" transform="translate(28.321678, 0.000000)">
                        <path d="M8.81436279,113.948948 C3.94550277,113.948948 0,110.042127 0,105.221001 L0,8.72794677 C0,3.90682106 3.94550277,0 8.81436279,0 L150.101721,0 C154.970581,0 158.916084,3.90682106 158.916084,8.72794677 L158.916084,105.221001 C158.916084,110.042127 154.970581,113.948948 150.101721,113.948948 L8.81436279,113.948948 Z" id="XMLID_118_" fill="#BAE4A2"></path>
                        <path d="M41.8462415,15.4882065 L17.1868492,15.4882065 C15.6716665,15.4882065 14.4469167,16.7036619 14.4469167,18.2012767 C14.4469167,19.6988914 15.6716665,20.9143468 17.1868492,20.9143468 L41.8462415,20.9143468 C43.3614242,20.9143468 44.586174,19.6988914 44.586174,18.2012767 C44.586174,16.7036619 43.3614242,15.4882065 41.8462415,15.4882065" id="XMLID_115_" fill="#FFFFFF"></path>
                        <path d="M77.0539722,14.921886 L52.3945798,14.921886 C50.8793972,14.921886 49.6546474,16.1373414 49.6546474,17.6349562 C49.6546474,19.1325709 50.8793972,20.3480264 52.3945798,20.3480264 L77.0539722,20.3480264 C78.5691548,20.3480264 79.7939046,19.1325709 79.7939046,17.6349562 C79.7939046,16.1373414 78.5691548,14.921886 77.0539722,14.921886 Z" id="XMLID_114_" fill="#FFFFFF"></path>
                        <rect id="Rectangle-19-Copy" fill-opacity="0.152088995" fill="#000000" x="44.6240415" y="58.2853774" width="13.9336002" height="7.90616767" rx="3.95308384"></rect>
                    </g>
                    <path d="M160.78584,32.9036052 C159.601329,31.7741482 158.441532,30.6226514 157.248921,29.5004122 C155.777977,28.1164023 154.281418,26.7560331 152.415103,25.8111752 C151.634108,25.4159641 150.824156,25.185467 149.90506,25.2078229 C148.128957,25.250736 146.350905,25.2247826 144.573688,25.2170737 C144.109824,25.2150179 143.642619,25.2705222 143.181818,25.1749315 L143.181818,25.2743767 C146.143475,27.9046637 148.832827,30.7746983 151.6923,33.4949228 C153.541073,35.2530728 155.325807,37.0728943 157.331058,38.6850885 C158.279389,39.4475017 159.276168,40.1487574 160.49569,40.5228974 C160.497089,40.5233259 160.498487,40.5237529 160.499881,40.5241784 C160.535267,40.5821581 160.597679,40.5950936 160.70812,40.5768968 C160.818572,40.5949772 160.901145,40.5834495 160.953437,40.5163646 C160.987106,40.5067158 161.023046,40.4961977 161.061412,40.4849122 C161.577374,40.3339392 162.045546,40.0944914 162.497325,39.8254662 C163.617605,39.1593332 164.602573,38.3386264 165.544474,37.474711 C168.915315,34.3837507 172.122226,31.1472186 175.377205,27.9526091 C176.295489,27.0511433 177.241559,26.1738538 178.264314,25.1996021 L177.642492,25.1996021 C175.725903,25.1993449 173.806813,25.2554132 171.893836,25.1797981 C170.605459,25.1291309 169.501295,25.4766003 168.462424,26.1049258 C167.96869,26.4037855 167.484958,26.7201344 167.025955,27.0624599 C165.037681,28.5438986 163.430336,30.3859237 161.586543,32.0003318 C161.25178,32.2931455 160.98369,32.5905237 160.78584,32.9036052 Z M167.742571,10.9266114 C167.657379,11.1062255 167.697972,11.2980799 167.697705,11.4840802 C167.694768,14.1742996 167.672067,16.8653172 167.703046,19.5552705 C167.727349,21.6595489 167.086138,23.4772431 165.618109,25.0126106 C163.899578,26.8098155 162.209889,28.6346942 160.508984,30.44547 C160.311359,30.3528689 160.394949,30.195873 160.394682,30.0795895 C160.389074,26.3949735 160.39762,22.7103576 160.37946,19.0262738 C160.377857,18.6388396 160.593375,18.4374058 160.81183,18.2043067 C163.086914,15.7775213 165.363334,13.3523324 167.639219,10.9266114 L167.742571,10.9266114 Z M152.473357,10.9266114 C153.296284,11.7878001 154.047814,12.5734785 154.798012,13.3610182 C156.359149,14.9993771 157.917887,16.6403949 159.481688,18.2763609 C159.663376,18.4661999 159.806703,18.640352 159.80617,18.9352141 C159.796046,22.6891884 159.799243,26.4428969 159.798444,30.1968712 C159.798444,30.2468568 159.785657,30.2968425 159.765676,30.44547 C159.184646,29.8387294 158.644908,29.2822404 158.112363,28.7183068 C156.793656,27.3229631 155.450439,25.9512828 154.17489,24.5155252 C153.053322,23.2528562 152.475755,21.7814706 152.457906,20.1157259 C152.426204,17.1506206 152.448582,14.1852494 152.449115,11.2198782 C152.449115,11.1589914 152.458705,11.0981047 152.473357,10.9266114 Z" id="Combined-Shape" fill="#FFFFFF"></path>
                </g>
                <path d="M123,79.9480519 C123,71.7718831 115.947937,65.1428571 107.25,65.1428571 C98.5520625,65.1428571 91.5,71.7718831 91.5,79.9480519" id="Shape" stroke="#4E5252" stroke-width="3.90000021" stroke-linecap="round" stroke-linejoin="round"></path>
                <ellipse id="Oval-6" fill="#4E5252" cx="96.75" cy="48.1168831" rx="3.75" ry="5.18181818"></ellipse>
                <ellipse id="Oval-6" fill="#4E5252" cx="117.75" cy="48.1168831" rx="3.75" ry="5.18181818"></ellipse>
                <rect id="Rectangle-19" fill-opacity="0.152088995" fill="#000000" x="127.5" y="57.7402597" width="13.5" height="7.4025974" rx="3.7012987"></rect>
            </g>
        </g>
    </g>
</svg>