<?xml version="1.0" encoding="UTF-8" standalone="no"?>
<svg width="23px" height="23px" viewBox="0 0 23 23" version="1.1" xmlns="http://www.w3.org/2000/svg" xmlns:xlink="http://www.w3.org/1999/xlink">
    <!-- Generator: sketchtool 41.2 (35397) - http://www.bohemiancoding.com/sketch -->
    <title>121D2F29-564B-4214-8972-48888962000B</title>
    <desc>Created with sketchtool.</desc>
    <defs></defs>
    <g id="Web-responsive" stroke="none" stroke-width="1" fill="none" fill-rule="evenodd" opacity="0.800000012">
        <g id="12-web" transform="translate(-487.000000, -96.000000)" stroke="#B8B8B8" stroke-width="1.04" fill="#B8B8B8">
            <g id="personal_form" transform="translate(488.000000, 97.000000)">
                <path d="M10.8162115,0.315792453 C10.6090385,0.315792453 10.4555769,0.328867925 10.3752115,0.337584906 C10.2912115,0.327679245 10.12725,0.313018868 9.90675,0.313018868 C9.20809615,0.313018868 7.87984615,0.466358491 6.83388462,1.49496226 C5.86142308,2.45066038 5.37034615,3.92184906 5.37357692,5.8665283 C5.38003846,9.2039434 6.69496154,11.1688302 7.79705769,12.2295283 C9.00294231,13.3900755 10.2092308,13.7470755 10.2601154,13.7617358 C10.2972692,13.772434 10.3356346,13.7779811 10.374,13.7779811 C10.4087308,13.7779811 10.4434615,13.7736226 10.4773846,13.7649057 C10.5315,13.7506415 15.8840769,12.2842075 15.6336923,5.85067925 C15.4333846,0.715188679 11.8956923,0.315792453 10.8162115,0.315792453 Z M10.3800577,12.9661132 C9.69836538,12.7248113 6.19096154,11.2207358 6.18086538,5.8649434 C6.17763462,4.13818868 6.58955769,2.856 7.40492308,2.05483019 C8.24532692,1.22869811 9.33288462,1.1054717 9.90634615,1.1054717 C10.1530962,1.1054717 10.3097885,1.12845283 10.3101923,1.12845283 C10.3501731,1.13439623 10.3921731,1.13479245 10.4325577,1.12884906 C10.4337692,1.12884906 10.5807692,1.10824528 10.8162115,1.10824528 C11.9663654,1.10824528 14.6588077,1.57341509 14.826,5.88039623 C15.0343846,11.2397547 11.11425,12.7339245 10.3800577,12.9661132 Z" id="Shape"></path>
                <path d="M14.6753654,12.2905472 C14.6188269,12.5021321 14.7480577,12.7188679 14.9637115,12.7743396 C16.0464231,13.0528868 18.6887885,13.8960566 20.1422308,15.767434 L20.1422308,20.0811509 L1.11178846,20.0811509 L1.11178846,15.767434 C2.54705769,13.9206226 5.15307692,13.0734906 6.22125,12.7921698 C6.4365,12.7355094 6.56451923,12.5179811 6.50676923,12.3067925 C6.44901923,12.0956038 6.22892308,11.9688113 6.01205769,12.0266604 C4.55821154,12.4094151 1.89363462,13.3571887 0.381230769,15.4036981 C0.331153846,15.4710566 0.3045,15.5526792 0.3045,15.636283 L0.3045,20.4773774 C0.3045,20.6960943 0.485423077,20.8736038 0.708346154,20.8736038 L20.5464808,20.8736038 C20.7694038,20.8736038 20.9503269,20.6960943 20.9503269,20.4773774 L20.9503269,15.636283 C20.9503269,15.5526792 20.9236731,15.4710566 20.8731923,15.4036981 C19.2848654,13.2537736 16.3545577,12.3127358 15.1684615,12.0076415 C14.9532115,11.9521698 14.7315,12.0789623 14.6753654,12.2905472 Z" id="Shape"></path>
            </g>
        </g>
    </g>
</svg>