<?xml version="1.0" encoding="UTF-8" standalone="no"?>
<svg width="81px" height="18px" viewBox="0 0 81 18" version="1.1" xmlns="http://www.w3.org/2000/svg" xmlns:xlink="http://www.w3.org/1999/xlink">
    <!-- Generator: sketchtool 41.1 (35376) - http://www.bohemiancoding.com/sketch -->
    <title>040C6D93-04FB-42AE-B499-F18B6846F722</title>
    <desc>Created with sketchtool.</desc>
    <defs></defs>
    <g id="Symbols" stroke="none" stroke-width="1" fill="none" fill-rule="evenodd">
        <g id="vp-logo">
            <g>
                <path d="M0.366376812,8.29399991 C2.50022544,10.3821371 4.15690821,12.348898 6.01584541,14.1986634 C7.54937198,15.8059338 9.06898551,17.4070194 10.3237359,17.6201367 C10.3355878,16.1182653 10.3469243,14.6166516 10.3592915,13.115038 C8.45938808,11.2248138 6.58318841,8.79084411 4.62376812,8.29399991 L0.366376812,8.29399991 L0.366376812,8.29399991 Z" id="Fill-154" fill="#EC1C24"></path>
                <path d="M21.0202641,8.29399991 C18.8861578,10.3821371 17.230248,12.348898 15.3710531,14.1986634 C13.836496,15.8059338 12.3171401,17.4070194 11.0631626,17.6201367 C11.0510531,16.1182653 11.0394589,14.6166516 11.0273494,13.115038 C12.9267375,11.2248138 14.8024219,8.79084411 16.7628728,8.29399991 L21.0202641,8.29399991" id="Fill-156" fill="#EC1C24"></path>
                <path d="M10.3223188,5.2028971 L10.3223188,12.1288228 L7.68837359,9.35855562 C6.93887279,8.47928569 6.16,7.92729384 6.03040258,6.13396458 L6.03040258,0.68336721 L10.3223188,5.2028971 Z" id="Fill-158" fill="#EC1C24"></path>
                <path d="M11.0255717,5.2028971 L11.0255717,12.1288228 L13.6592593,9.35855562 C14.4090177,8.47928569 15.1438325,7.90899719 15.2731723,6.11515254 L15.2731723,0.664812862 L11.0255717,5.2028971 Z" id="Fill-160" fill="#EC1C24"></path>
                <path d="M37.3602319,7.05374484 L37.3602319,10.9068644 L38.5116651,10.9068644 C39.4945958,10.9068644 40.1521159,10.837801 40.4821643,10.6952933 C40.8129855,10.553301 41.0714074,10.3309065 41.2605217,10.0275945 C41.4470596,9.72376703 41.542132,9.37278062 41.542132,8.97102745 C41.542132,8.47753333 41.4099581,8.06856458 41.1461256,7.74592509 C40.8843543,7.42663569 40.5478647,7.22691875 40.1459324,7.14574348 C39.8470596,7.08415335 39.2498293,7.05374484 38.3539839,7.05374484 L37.3602319,7.05374484 Z M35.1743382,17.3949591 L35.1681546,5.21299891 L38.7301514,5.21299891 C40.0797166,5.21299891 40.9603607,5.27407364 41.3705378,5.3957077 C42.0010048,5.57583949 42.5302158,5.97140788 42.9563671,6.58009357 C43.3804573,7.18955236 43.5932754,7.97630824 43.5932754,8.93804194 C43.5932754,9.68253514 43.4252882,10.2631316 43.1802641,10.7679645 C42.9342093,11.2751167 42.6237424,11.6737774 42.2449984,11.9639468 C41.868058,12.2517969 41.484934,12.4476484 41.0948535,12.5360392 C40.5659002,12.6561271 39.8411337,12.7571452 38.8352721,12.7571452 L37.388058,12.7571452 L37.3947568,17.3949591 L35.1743382,17.3949591 Z" id="Fill-162" fill="#008346"></path>
                <path d="M47.0235362,11.7678892 L47.0235362,15.5207638 L48.8471755,15.5207638 C49.6482061,15.5207638 50.1511369,15.4823666 50.3696232,15.4334037 C51.066306,15.2800726 51.5841804,14.5216637 51.5532625,13.8186601 C51.4777713,12.1389762 49.6559356,11.7781972 48.8801546,11.7678892 L47.0235362,11.7678892 Z M47.0212174,6.98164058 L47.0212174,10.0637239 L48.1007665,10.0637239 C48.9512657,10.0637239 49.3372238,10.0660432 49.5438583,10.0358924 C49.916934,9.98229094 50.3152593,9.75912337 50.5293655,9.49523931 C50.7434718,9.23161295 50.8867246,8.9311356 50.8867246,8.49923161 C50.8867246,8.08665507 50.7687214,7.78875471 50.5837295,7.53182853 C50.3984799,7.27412926 50.0753881,7.11847889 49.713649,7.06668134 C49.4969662,7.03498433 48.9504928,6.98164058 47.9237617,6.98164058 L47.0212174,6.98164058 Z M45.025211,5.20196938 L49.6482061,5.20196938 C51.3458551,5.23443949 52.8927794,6.23611658 52.8801546,8.12299067 C52.8719098,9.21692409 52.6418293,10.1327873 51.3721353,10.7873435 C52.6804767,11.2576447 53.5606055,12.5036207 53.6677874,13.8596342 C53.7963543,15.4988593 53.0128438,17.0293353 50.5038583,17.3362552 C50.1717488,17.3808371 49.6703639,17.4035147 48.3988663,17.4035147 L45.0362899,17.4035147 L45.025211,5.20196938 Z" id="Fill-164" fill="#008346"></path>
                <path d="M55.6002576,9.409812 L55.6002576,9.67601535 C55.7813849,10.0432368 55.9547826,10.4362282 56.1158132,10.8678745 C56.8078583,10.5125072 57.5179388,10.3643301 58.2308535,10.2455308 C59.3258615,10.0942613 60.0258937,10.4746254 60.0802576,11.1477359 L60.0802576,11.9520154 C58.1007407,11.9803623 56.8691787,12.2452771 55.9908535,12.8954524 C55.2707246,13.5835095 54.9180032,14.5828673 55.3683736,16.2741476 C55.788599,17.2227386 56.5466023,17.5948564 57.5385507,17.5719212 C58.6848309,17.5438319 59.4961675,17.0557495 60.1866667,16.398101 C60.2490177,16.7300176 60.3549114,17.0616766 60.5605153,17.3941087 L62.2674396,17.3941087 C62.2218357,17.1567676 62.1958132,16.7823306 62.1785507,16.3447572 C62.1785507,14.5369968 62.1831884,13.037187 62.1831884,11.2296843 C62.1332045,10.0981268 61.7173591,9.13948546 60.6313688,8.85859325 C59.0388406,8.4496245 57.326248,8.78772595 55.6002576,9.409812 M60.093913,13.2351 L60.093913,15.1111508 C59.5786151,15.7278251 57.5496296,16.9418464 57.2899195,15.0456952 L57.2698229,14.388562 C57.3370692,13.7427676 57.7490499,13.300298 58.8479227,13.2142264 C59.2635105,13.2209266 59.6783253,13.2281422 60.093913,13.2351" id="Fill-166" fill="#008346"></path>
                <path d="M65.9395298,17.370323 L63.7987246,17.370323 L63.7987246,8.90077862 L65.3907375,8.90077862 L65.6455523,9.03400915 L65.7084187,9.7620096 L65.8032335,9.77669846 C66.7333462,9.11209203 67.808,8.69307301 68.9800451,8.73971658 C70.1216876,8.83326141 70.803942,9.48601368 70.8402705,10.8536237 L70.8402705,17.3896505 L68.6543768,17.3896505 L68.6543768,11.1370929 C68.4876779,9.70041947 66.7619452,10.5750508 65.9395298,11.0512791 L65.9395298,17.370323 Z" id="Fill-168" fill="#008346"></path>
                <path d="M76.9475298,12.6519266 L80.0854364,17.3928202 L77.5754203,17.3928202 C76.944438,16.2460584 76.1446957,15.1000697 75.629913,13.9991784 L76.9475298,12.6519266 Z" id="Fill-170" fill="#039047"></path>
                <polygon id="Fill-172" fill="#008346" points="72.3297907 17.4139257 74.4896618 17.4139257 74.4896618 5.19124909 72.3297907 5.19124909"></polygon>
                <path d="M74.4796135,12.2748352 L76.6500483,10.0274399 C77.3109179,9.46230534 77.769533,9.20228678 78.0637681,9.17728995 L80.3838969,9.17728995 L75.7168438,13.9333878 C75.2309179,14.3936387 74.9031884,14.5809861 74.4780676,14.6510803 L74.4796135,12.2748352 Z" id="Fill-174" fill="#EC1C24"></path>
                <path d="M24.1298035,5.16996313 L26.3270338,5.16996313 C26.8608824,9.01664022 27.7242641,12.4141475 29.0158583,15.2266774 C30.528,11.4722566 31.3027504,8.16700571 31.5748277,5.16996313 L33.7457778,5.16996313 C33.1949243,9.19574121 32.1862287,13.2094074 30.0492882,17.3730546 L27.8523156,17.3730546 C25.8137971,13.6070374 24.7891272,9.48797219 24.1298035,5.16996313" id="Fill-175" fill="#008346"></path>
            </g>
        </g>
    </g>
</svg>