<?xml version="1.0" encoding="UTF-8" standalone="no"?>
<svg width="12px" height="15px" viewBox="0 0 12 15" version="1.1" xmlns="http://www.w3.org/2000/svg" xmlns:xlink="http://www.w3.org/1999/xlink">
    <!-- Generator: sketchtool 41.2 (35397) - http://www.bohemiancoding.com/sketch -->
    <title>4A8A0A24-701C-47DC-B24B-2580B74E8803</title>
    <desc>Created with sketchtool.</desc>
    <defs></defs>
    <g id="Web-responsive" stroke="none" stroke-width="1" fill="none" fill-rule="evenodd">
        <g id="12-web" transform="translate(-469.000000, -536.000000)" fill="#FFFFFF">
            <path d="M478.497981,549.048441 C477.617265,549.200676 476.22599,549.382459 474.600234,549.382459 C472.974479,549.382459 471.583203,549.200676 470.702487,549.048441 C470.07776,548.940175 469.629838,548.399553 469.637402,547.762957 C469.641421,547.426103 469.65253,547.080975 469.669549,546.737265 C469.673803,546.655711 469.680422,546.574866 469.689876,546.494257 C469.84919,545.113981 470.865346,543.911234 472.242913,543.448384 L474.393647,545.599288 C474.453212,545.658858 474.534523,545.692662 474.618907,545.692662 L474.619853,545.692662 C474.705183,545.692189 474.786494,545.657913 474.846059,545.597397 L476.95921,543.448857 C478.336068,543.911943 479.351515,545.11469 479.510592,546.494494 C479.520047,546.574866 479.526665,546.655711 479.53092,546.736792 C479.548175,547.080975 479.559048,547.426103 479.563066,547.763194 C479.57063,548.399553 479.122708,548.940175 478.497981,549.048441 M471.961159,540.189524 C472.024034,540.186451 472.087381,540.184323 472.148601,540.177704 L472.173183,540.865124 C472.196111,541.510939 472.46841,542.088201 472.895768,542.50661 C472.162783,542.967332 471.456509,542.612512 471.090371,542.348465 C471.390798,542.019885 471.811064,541.365087 471.961159,540.189524 M474.536887,536.637778 L474.600234,536.637541 L474.664054,536.637778 C476.077076,536.653852 477.183999,537.806722 477.183999,539.262406 C477.183999,539.331668 477.186362,539.397384 477.188017,539.464046 C475.458022,539.38131 474.908698,538.35869 474.884351,538.31094 C474.883642,538.309758 474.882697,538.308812 474.882224,538.30763 C474.876551,538.29652 474.869224,538.286355 474.862133,538.275954 C474.857169,538.268626 474.852914,538.260825 474.847241,538.25397 C474.841805,538.247115 474.835186,538.241205 474.829041,538.234822 C474.820295,538.225603 474.811786,538.216148 474.802095,538.20811 C474.801149,538.207401 474.800204,538.206219 474.799258,538.205274 C474.794058,538.201019 474.788149,538.198419 474.782712,538.194636 C474.772075,538.187072 474.761675,538.179507 474.750093,538.173361 C474.742056,538.16887 474.733783,538.165797 474.725511,538.162251 C474.714874,538.157523 474.704474,538.152795 474.693364,538.149486 C474.684618,538.146886 474.676109,538.145231 474.667127,538.14334 C474.655781,538.14074 474.644435,538.138376 474.632853,538.136957 C474.62458,538.136248 474.616307,538.136248 474.608034,538.136012 C474.595743,538.135775 474.583688,538.135303 474.571397,538.136485 C474.562888,538.137194 474.554851,538.139085 474.546578,538.140267 C474.53476,538.142394 474.523178,538.144285 474.511359,538.147595 C474.501431,538.150432 474.491977,538.154687 474.482522,538.158469 C474.474485,538.161542 474.466449,538.163433 474.458648,538.167215 C474.456994,538.168161 474.455576,538.169343 474.453685,538.170288 C474.44423,538.175252 474.435248,538.181635 474.426266,538.187545 C474.417284,538.193218 474.408065,538.198419 474.400029,538.205037 C474.39341,538.210238 474.387737,538.21662 474.381592,538.22253 C474.372137,538.231277 474.362682,538.240023 474.354645,538.249715 C474.353464,538.250897 474.352045,538.252079 474.3511,538.253261 C474.342118,538.264607 473.551695,539.226002 472.383789,539.491703 C472.379771,539.492412 472.376226,539.493594 472.372207,539.49454 C472.255913,539.520543 472.135601,539.538745 472.011979,539.549146 C472.015288,539.455772 472.017652,539.36098 472.017652,539.262406 C472.017652,539.254605 472.015997,539.247277 472.015524,539.239476 C472.01387,537.819014 473.140411,536.653852 474.536887,536.637778 M478.111279,542.348465 C477.743487,542.613694 477.032485,542.969696 476.297373,542.500936 C476.729458,542.078273 477.00483,541.495101 477.028231,540.84243 L477.05494,540.095677 C477.111669,540.09946 477.171707,540.100642 477.230564,540.102533 C477.370968,541.331992 477.803762,542.011847 478.111279,542.348465 M473.43611,542.904689 C473.775302,543.08789 474.162949,543.192847 474.575888,543.194738 L474.601652,543.194975 C475.020973,543.192847 475.414294,543.085527 475.758213,542.898543 C475.93549,543.038958 476.11395,543.143915 476.291937,543.218377 L474.617017,544.921324 L472.913023,543.216959 C473.087228,543.143678 473.262378,543.041085 473.43611,542.904689 M474.563124,538.956755 C474.854569,539.303301 475.430367,539.798063 476.420286,540.007741 L476.391212,540.819737 C476.356466,541.789642 475.569116,542.552942 474.601652,542.557433 L474.578961,542.557433 C473.621188,542.552942 472.844003,541.79957 472.809965,540.84243 L472.781601,540.045563 C473.601806,539.793572 474.225114,539.285572 474.563124,538.956755 M480.167465,546.704407 C480.162501,546.609379 480.154465,546.514587 480.143828,546.420977 C479.984987,545.044247 479.148709,543.8545 477.928329,543.181737 C478.308176,543.020756 478.624203,542.785076 478.825827,542.577054 C478.894138,542.50661 478.926048,542.408745 478.912811,542.311589 C478.899338,542.214669 478.8419,542.129096 478.75728,542.079927 C478.748061,542.07449 477.821489,541.473117 477.821489,539.262406 C477.821489,537.45332 476.437777,536.020329 474.669254,536.000473 L474.600234,536 L474.529323,536.000473 C472.776164,536.020329 471.36196,537.484996 471.377324,539.265006 C471.377324,539.272807 471.378979,539.279899 471.379688,539.287463 C471.372361,541.472407 470.449571,542.076618 470.444371,542.079927 C470.35975,542.129096 470.302548,542.214669 470.289075,542.311589 C470.275602,542.408745 470.307749,542.50661 470.375823,542.577054 C470.577447,542.785076 470.893238,543.02052 471.272612,543.181501 C470.051996,543.854027 469.215481,545.04401 469.05664,546.42074 C469.046004,546.514587 469.037967,546.609379 469.033003,546.70488 C469.015275,547.0571 469.004166,547.410501 469.000148,547.755393 C468.988566,548.706386 469.658912,549.514364 470.593757,549.676291 C471.499292,549.833253 472.929096,550.02 474.600234,550.02 C476.271373,550.02 477.701177,549.833253 478.606712,549.676291 C479.541556,549.514364 480.211666,548.706386 480.200321,547.755629 C480.196302,547.410501 480.185193,547.0571 480.167465,546.704407" id="Fill-3406"></path>
        </g>
    </g>
</svg>