<?xml version="1.0" encoding="utf-8"?>
<!-- Generator: Adobe Illustrator 16.0.0, SVG Export Plug-In . SVG Version: 6.00 Build 0)  -->
<!DOCTYPE svg PUBLIC "-//W3C//DTD SVG 1.1//EN" "http://www.w3.org/Graphics/SVG/1.1/DTD/svg11.dtd">
<svg version="1.1" id="Layer_1" xmlns="http://www.w3.org/2000/svg" xmlns:xlink="http://www.w3.org/1999/xlink" x="0px" y="0px"
	 width="11px" height="14px" viewBox="0 0 11 14" enable-background="new 0 0 11 14" xml:space="preserve">
<title>BC85D529-A2AD-4A96-8A60-CA104EA8BF02</title>
<desc>Created with sketchtool.</desc>
<g id="Web-responsive">
	<g id="_x31_2-web" transform="translate(-336.000000, -536.000000)">
		<path id="Fill-3403" fill="#FFFFFF" d="M345.34,549.002c-0.868,0.149-2.238,0.328-3.84,0.328s-2.972-0.179-3.839-0.328
			c-0.622-0.108-1.067-0.646-1.06-1.279c0.004-0.336,0.015-0.676,0.032-1.01c0.004-0.08,0.011-0.16,0.02-0.24
			c0.161-1.393,1.205-2.604,2.61-3.038c0.224,0.378,0.826,1.071,2.236,1.071s2.013-0.692,2.236-1.071
			c1.405,0.434,2.449,1.645,2.61,3.038c0.009,0.08,0.017,0.16,0.021,0.24c0.017,0.334,0.027,0.674,0.031,1.01
			C346.406,548.355,345.961,548.894,345.34,549.002 M339.519,540.62c-0.203-0.171-0.233-0.361-0.242-0.641
			c0.031,0.011,0.063,0.018,0.097,0.018c0.061,0,0.122-0.019,0.174-0.056c0.102-0.073,0.148-0.201,0.116-0.322
			c-0.044-0.167-0.062-0.452,0.01-0.539c0.02-0.025,0.074-0.026,0.116-0.023c0.107,0.007,0.207-0.041,0.268-0.127
			c0.286-0.409,1.549-0.119,2.618,0.18c0.25,0.07,0.491,0.089,0.721,0.059c-0.014,0.101-0.054,0.221-0.148,0.347
			c-0.085,0.111-0.082,0.267,0.008,0.374c0.059,0.07,0.145,0.108,0.231,0.108c0.046,0,0.092-0.01,0.135-0.032
			c0.005-0.002,0.024-0.013,0.054-0.031c-0.006,0.252-0.02,0.472-0.209,0.654c-0.053,0.05-0.084,0.116-0.092,0.187
			c-0.047,0.478-0.264,0.898-0.584,1.206c-0.008,0.007-0.015,0.015-0.021,0.022c-0.332,0.308-0.771,0.496-1.251,0.5h-0.021h-0.021
			c-0.942-0.009-1.74-0.735-1.854-1.689C339.614,540.738,339.577,540.669,339.519,540.62 M339.309,538.041
			c0.068-0.053,0.11-0.137,0.115-0.223c0.002-0.05,0.09-1.216,2.077-1.216c0.891,0,1.482,0.345,1.957,0.621
			c0.305,0.177,0.615,0.358,0.938,0.376c-0.154,0.313-0.385,0.659-0.697,0.842c-0.256,0.15-0.537,0.18-0.859,0.089
			c-1.558-0.434-2.645-0.597-3.167-0.071c-0.233,0.024-0.376,0.137-0.459,0.238c-0.072,0.087-0.118,0.187-0.147,0.292
			c-0.06-0.1-0.092-0.199-0.096-0.298C338.953,538.332,339.307,538.042,339.309,538.041 M340.185,542.723
			c0.376,0.238,0.817,0.377,1.286,0.382h0.026c0,0,0.025,0,0.025,0c0.468-0.004,0.905-0.14,1.278-0.372
			c0.092,0.2,0.23,0.35,0.379,0.458c-0.188,0.278-0.646,0.713-1.68,0.713c-1.056,0-1.511-0.454-1.691-0.731
			C339.955,543.062,340.092,542.913,340.185,542.723 M346.967,546.682c-0.004-0.093-0.012-0.186-0.022-0.277
			c-0.194-1.687-1.423-3.089-3.13-3.574c-0.1-0.021-0.449-0.12-0.51-0.513c0.345-0.369,0.581-0.844,0.656-1.377
			c0.302-0.345,0.311-0.737,0.316-1.03c0.005-0.203-0.049-0.348-0.119-0.452c0.127-0.2,0.227-0.466,0.229-0.805
			c0.577-0.58,0.793-1.437,0.804-1.48c0.031-0.127-0.024-0.26-0.137-0.328s-0.256-0.055-0.354,0.031
			c-0.232,0.205-0.386,0.149-0.939-0.173c-0.509-0.297-1.207-0.703-2.261-0.703c-2.154,0-2.577,1.23-2.659,1.654
			c-0.167,0.164-0.493,0.549-0.475,1.055c0.011,0.299,0.138,0.58,0.375,0.841c-0.048,0.104-0.071,0.225-0.068,0.361
			c0.007,0.312,0.016,0.73,0.369,1.086c0.083,0.506,0.316,0.958,0.647,1.313c-0.066,0.376-0.454,0.506-0.503,0.521
			c-1.707,0.484-2.935,1.887-3.129,3.573c-0.01,0.092-0.019,0.185-0.023,0.277c-0.018,0.343-0.028,0.69-0.033,1.034
			c-0.011,0.93,0.644,1.72,1.558,1.878c0.891,0.154,2.297,0.338,3.942,0.338s3.051-0.184,3.941-0.338
			c0.914-0.158,1.57-0.948,1.559-1.878"/>
	</g>
</g>
</svg>
