<?xml version="1.0" encoding="utf-8"?>
<!-- Generator: Adobe Illustrator 16.0.0, SVG Export Plug-In . SVG Version: 6.00 Build 0)  -->
<!DOCTYPE svg PUBLIC "-//W3C//DTD SVG 1.1//EN" "http://www.w3.org/Graphics/SVG/1.1/DTD/svg11.dtd">
<svg version="1.1" id="Layer_1" xmlns="http://www.w3.org/2000/svg" xmlns:xlink="http://www.w3.org/1999/xlink" x="0px" y="0px"
	 width="12px" height="15px" viewBox="0 0 12 15" enable-background="new 0 0 12 15" xml:space="preserve">
<title>4A8A0A24-701C-47DC-B24B-2580B74E8803</title>
<desc>Created with sketchtool.</desc>
<g id="Web-responsive">
	<g id="_x31_2-web" transform="translate(-469.000000, -536.000000)">
		<path id="Fill-3406" fill="#666666" d="M478.498,549.049c-0.881,0.152-2.271,0.334-3.898,0.334c-1.625,0-3.017-0.182-3.897-0.334
			c-0.625-0.108-1.073-0.649-1.065-1.286c0.004-0.337,0.015-0.682,0.032-1.025c0.004-0.081,0.011-0.163,0.021-0.243
			c0.159-1.381,1.175-2.583,2.553-3.046l2.15,2.151c0.06,0.059,0.141,0.094,0.226,0.094h0c0.085-0.001,0.167-0.035,0.227-0.096
			l2.113-2.149c1.377,0.463,2.393,1.667,2.552,3.045c0.009,0.08,0.017,0.162,0.021,0.242c0.018,0.345,0.027,0.689,0.031,1.027
			C479.57,548.399,479.123,548.94,478.498,549.049 M471.961,540.189c0.063-0.003,0.126-0.005,0.188-0.012l0.025,0.688
			c0.023,0.646,0.295,1.223,0.723,1.642c-0.733,0.46-1.439,0.105-1.806-0.158C471.391,542.02,471.811,541.365,471.961,540.189
			 M474.537,536.638h0.063h0.064c1.413,0.016,2.52,1.169,2.52,2.625c0,0.069,0.003,0.135,0.004,0.202
			c-1.729-0.083-2.279-1.105-2.303-1.153c0-0.001-0.001-0.002-0.002-0.003c-0.006-0.011-0.013-0.021-0.02-0.032
			c-0.005-0.007-0.009-0.015-0.015-0.022c-0.005-0.007-0.012-0.013-0.018-0.019c-0.009-0.009-0.017-0.019-0.027-0.027
			c-0.001,0-0.002-0.002-0.003-0.003c-0.005-0.004-0.011-0.007-0.017-0.01c-0.011-0.008-0.021-0.015-0.033-0.021
			c-0.008-0.004-0.016-0.007-0.024-0.011c-0.011-0.004-0.021-0.009-0.032-0.013c-0.009-0.002-0.017-0.004-0.026-0.006
			c-0.011-0.003-0.022-0.005-0.034-0.007c-0.008,0-0.017,0-0.025-0.001c-0.012,0-0.024,0-0.037,0.001
			c-0.008,0-0.017,0.002-0.025,0.003c-0.012,0.002-0.023,0.004-0.035,0.007c-0.01,0.003-0.019,0.007-0.029,0.011
			c-0.008,0.003-0.016,0.005-0.024,0.009c-0.001,0.001-0.003,0.002-0.005,0.003c-0.009,0.005-0.019,0.011-0.027,0.017
			s-0.018,0.011-0.026,0.018c-0.006,0.005-0.012,0.012-0.018,0.018c-0.01,0.009-0.019,0.018-0.027,0.027
			c-0.001,0.001-0.002,0.002-0.003,0.004c-0.009,0.011-0.799,0.973-1.967,1.238c-0.004,0-0.008,0.002-0.012,0.003
			c-0.116,0.026-0.236,0.044-0.36,0.055c0.003-0.094,0.005-0.188,0.005-0.287c0-0.008-0.001-0.015-0.002-0.023
			C472.014,537.819,473.141,536.654,474.537,536.638 M478.111,542.349c-0.367,0.265-1.079,0.621-1.814,0.152
			c0.433-0.423,0.708-1.006,0.731-1.659l0.026-0.747c0.057,0.004,0.117,0.005,0.176,0.007
			C477.371,541.332,477.804,542.012,478.111,542.349 M473.436,542.905c0.339,0.183,0.727,0.288,1.14,0.29h0.026
			c0.419-0.002,0.812-0.109,1.156-0.296c0.178,0.141,0.355,0.246,0.534,0.32l-1.675,1.704l-1.704-1.705
			C473.087,543.144,473.262,543.041,473.436,542.905 M474.563,538.957c0.292,0.347,0.867,0.841,1.857,1.051l-0.029,0.812
			c-0.034,0.97-0.821,1.733-1.789,1.738h-0.022c-0.958-0.005-1.735-0.758-1.769-1.715l-0.028-0.797
			C473.602,539.793,474.225,539.286,474.563,538.957 M480.168,546.705c-0.006-0.096-0.014-0.19-0.023-0.284
			c-0.16-1.376-0.996-2.566-2.217-3.239c0.381-0.161,0.696-0.396,0.898-0.604c0.068-0.07,0.1-0.168,0.086-0.266
			c-0.013-0.097-0.07-0.183-0.154-0.231c-0.01-0.006-0.937-0.607-0.937-2.818c0-1.809-1.384-3.242-3.152-3.262l-0.069,0l-0.071,0
			c-1.753,0.02-3.167,1.484-3.152,3.265c0,0.008,0.001,0.015,0.002,0.022c-0.007,2.185-0.93,2.789-0.936,2.792
			c-0.084,0.049-0.142,0.135-0.155,0.231c-0.014,0.097,0.019,0.195,0.087,0.266c0.202,0.208,0.517,0.443,0.896,0.604
			c-1.221,0.672-2.057,1.862-2.216,3.239c-0.011,0.094-0.019,0.188-0.023,0.284c-0.018,0.352-0.029,0.705-0.033,1.051
			c-0.011,0.951,0.659,1.758,1.594,1.92c0.906,0.157,2.335,0.344,4.006,0.344c1.671,0,3.101-0.187,4.007-0.344
			c0.934-0.162,1.604-0.969,1.593-1.92C480.196,547.41,480.186,547.057,480.168,546.705"/>
	</g>
</g>
</svg>
