<?xml version="1.0" encoding="UTF-8" standalone="no"?>
<svg width="11px" height="14px" viewBox="0 0 11 14" version="1.1" xmlns="http://www.w3.org/2000/svg" xmlns:xlink="http://www.w3.org/1999/xlink">
    <!-- Generator: sketchtool 41.2 (35397) - http://www.bohemiancoding.com/sketch -->
    <title>BC85D529-A2AD-4A96-8A60-CA104EA8BF02</title>
    <desc>Created with sketchtool.</desc>
    <defs></defs>
    <g id="Web-responsive" stroke="none" stroke-width="1" fill="none" fill-rule="evenodd">
        <g id="12-web" transform="translate(-336.000000, -536.000000)" fill="#666666">
            <path d="M345.339251,549.001361 C344.47192,549.151545 343.102028,549.33062 341.500115,549.33062 C339.898201,549.33062 338.52808,549.151545 337.660978,549.001361 C337.039426,548.893595 336.593953,548.356142 336.601519,547.723305 C336.605646,547.387168 336.616192,547.046904 336.633388,546.712601 C336.637515,546.63212 336.644163,546.552098 336.653334,546.472535 C336.813824,545.079606 337.85838,543.86942 339.263809,543.434918 C339.487348,543.813244 340.089642,544.505238 341.500115,544.505238 C342.910358,544.505238 343.512652,543.813244 343.736191,543.434918 C345.141849,543.869649 346.186176,545.079835 346.346895,546.472535 C346.356066,546.552098 346.362715,546.63212 346.366842,546.712601 C346.383808,547.047133 346.394583,547.387168 346.398481,547.723305 C346.406047,548.356142 345.960574,548.893595 345.339251,549.001361 M339.518987,540.620169 C339.316541,540.448661 339.286048,540.25881 339.276648,539.979765 C339.308058,539.990312 339.340386,539.997191 339.373401,539.997191 C339.434387,539.997191 339.495602,539.978619 339.547646,539.941474 C339.649901,539.868789 339.696214,539.740388 339.663886,539.619094 C339.619637,539.45263 339.602213,539.166936 339.674204,539.079807 C339.694379,539.055273 339.748258,539.053439 339.790444,539.056649 C339.897742,539.063298 339.997475,539.015606 340.058232,538.929164 C340.343903,538.520571 341.606955,538.810622 342.675356,539.108926 C342.926178,539.179089 343.166912,539.197661 343.396641,539.167624 C343.382426,539.268282 343.342992,539.388659 343.247615,539.514768 C343.163014,539.626202 343.166453,539.781201 343.255869,539.888738 C343.314562,539.959129 343.40008,539.997191 343.487203,539.997191 C343.532828,539.997191 343.578911,539.986873 343.622014,539.96532 C343.62637,539.963027 343.646317,539.95248 343.675205,539.934825 C343.669244,540.187042 343.655717,540.406242 343.46611,540.588527 C343.414524,540.638053 343.382197,540.704318 343.37509,540.775626 C343.327631,541.253006 343.111428,541.673751 342.791367,541.980998 C342.783571,541.988105 342.776464,541.995443 342.769586,542.003009 C342.437831,542.311173 341.998549,542.498502 341.518456,542.502859 L341.497593,542.503088 L341.4765,542.502859 C340.533968,542.494146 339.737024,541.767988 339.623076,540.813918 C339.613905,540.738482 339.576764,540.669236 339.518987,540.620169 M339.308746,538.04067 C339.37661,537.987246 339.418338,537.903785 339.423152,537.817572 C339.425904,537.767816 339.513714,536.601424 341.500115,536.601424 C342.391289,536.601424 342.982578,536.946045 343.457627,537.222797 C343.761869,537.400037 344.072301,537.580946 344.393968,537.598372 C344.240586,537.912268 344.009252,538.257348 343.696756,538.44055 C343.44089,538.590505 343.159804,538.619853 342.837221,538.529514 C341.280015,538.095241 340.192814,537.932446 339.670306,538.458663 C339.437596,538.48251 339.294073,538.595778 339.210848,538.696436 C339.139086,538.783107 339.092773,538.883306 339.063885,538.987633 C339.004046,538.888351 338.971718,538.788839 338.967592,538.690016 C338.95246,538.331867 339.306454,538.042504 339.308746,538.04067 M340.185248,542.722747 C340.561252,542.960519 341.002139,543.100156 341.470997,543.104283 L341.497593,543.104513 C341.49828,543.104513 341.523042,543.104283 341.523042,543.104283 C341.990754,543.100156 342.427973,542.965105 342.800996,542.732606 C342.892246,542.932775 343.030954,543.082501 343.179063,543.190954 C342.991291,543.469311 342.532979,543.903813 341.500115,543.903813 C340.444553,543.903813 339.988992,543.450051 339.809015,543.17307 C339.954602,543.062094 340.091935,542.913056 340.185248,542.722747 M346.967301,546.682105 C346.962716,546.588785 346.954921,546.495923 346.944374,546.403749 C346.749724,544.717559 345.521292,543.315229 343.814372,542.830742 C343.714869,542.809189 343.365002,542.710824 343.305391,542.317135 C343.649297,541.948668 343.885904,541.473352 343.961105,540.940256 C344.262596,540.595176 344.271079,540.202863 344.277499,539.91052 C344.282084,539.708058 344.228893,539.562689 344.157819,539.458363 C344.285752,539.258193 344.384797,538.992448 344.387778,538.654018 C344.964852,538.073917 345.180596,537.216835 345.191142,537.1735 C345.222094,537.046015 345.166839,536.913257 345.054497,536.845158 C344.942154,536.777289 344.798631,536.790129 344.700274,536.876571 C344.467793,537.080867 344.31464,537.026067 343.760493,536.703229 C343.251283,536.4063 342.553842,536 341.500115,536 C339.345888,536 338.922884,537.230593 338.841264,537.653631 C338.673896,537.817343 338.348102,538.203006 338.366444,538.709047 C338.37722,539.00781 338.504465,539.289147 338.741302,539.550307 C338.693155,539.654863 338.669998,539.77524 338.672979,539.911208 C338.679857,540.222582 338.689028,540.641034 339.041646,540.997349 C339.125101,541.504077 339.35781,541.955776 339.688418,542.310715 C339.622388,542.68629 339.234233,542.816526 339.18494,542.830971 C337.478479,543.315687 336.250276,544.717788 336.055855,546.403749 C336.045309,546.495923 336.037284,546.588785 336.032699,546.682105 C336.015274,547.024204 336.004498,547.372035 336.000142,547.715968 C335.988908,548.645734 336.644163,549.435634 337.558265,549.594073 C338.448752,549.748155 339.855557,549.932044 341.500115,549.932044 C343.144673,549.932044 344.551477,549.748155 345.441735,549.594073 C346.355837,549.435634 347.011092,548.645734 346.999858,547.715968" id="Fill-3403"></path>
        </g>
    </g>
</svg>